<svg xmlns="http://www.w3.org/2000/svg" xmlns:xlink="http://www.w3.org/1999/xlink" contentStyleType="text/css" data-diagram-type="SEQUENCE" height="656px" preserveAspectRatio="none" style="width:1405px;height:656px;background:#FFFFFF;" version="1.1" viewBox="0 0 1405 656" width="1405px" zoomAndPan="magnify"><title>Sequence - Demande et Approvisionnement Mat&#233;riel</title><defs/><g><text fill="#000000" font-family="sans-serif" font-size="14" font-weight="bold" lengthAdjust="spacing" textLength="417.6348" x="492.9258" y="27.9951">Sequence - Demande et Approvisionnement Mat&#233;riel</text><g><title>Chef</title><rect fill="#000000" fill-opacity="0.00000" height="456.9922" width="8" x="20.0952" y="118.5938"/><line style="stroke:#181818;stroke-width:0.5;stroke-dasharray:5,5;" x1="24" x2="24" y1="118.5938" y2="575.5859"/></g><g><title>Front-end . Mobile</title><rect fill="#000000" fill-opacity="0.00000" height="456.9922" width="8" x="371.7739" y="118.5938"/><line style="stroke:#181818;stroke-width:0.5;stroke-dasharray:5,5;" x1="374.9229" x2="374.9229" y1="118.5938" y2="575.5859"/></g><g><title>API Django</title><rect fill="#000000" fill-opacity="0.00000" height="456.9922" width="8" x="571.1025" y="118.5938"/><line style="stroke:#181818;stroke-width:0.5;stroke-dasharray:5,5;" x1="575.0161" x2="575.0161" y1="118.5938" y2="575.5859"/></g><g><title>DB</title><rect fill="#000000" fill-opacity="0.00000" height="456.9922" width="8" x="826.1318" y="118.5938"/><line style="stroke:#181818;stroke-width:0.5;stroke-dasharray:5,5;" x1="829.9395" x2="829.9395" y1="118.5938" y2="575.5859"/></g><g><title>Responsable Achat</title><rect fill="#000000" fill-opacity="0.00000" height="456.9922" width="8" x="927.2686" y="118.5938"/><line style="stroke:#181818;stroke-width:0.5;stroke-dasharray:5,5;" x1="930.3242" x2="930.3242" y1="118.5938" y2="575.5859"/></g><g><title>Fournisseur .externe.</title><rect fill="#000000" fill-opacity="0.00000" height="456.9922" width="8" x="1093.9414" y="118.5938"/><line style="stroke:#181818;stroke-width:0.5;stroke-dasharray:5,5;" x1="1097.2129" x2="1097.2129" y1="118.5938" y2="575.5859"/></g><g><title>Stock</title><rect fill="#000000" fill-opacity="0.00000" height="456.9922" width="8" x="1213.043" y="118.5938"/><line style="stroke:#181818;stroke-width:0.5;stroke-dasharray:5,5;" x1="1216.6699" x2="1216.6699" y1="118.5938" y2="575.5859"/></g><g><title>NotificationService</title><rect fill="#000000" fill-opacity="0.00000" height="456.9922" width="8" x="1322.4512" y="118.5938"/><line style="stroke:#181818;stroke-width:0.5;stroke-dasharray:5,5;" x1="1326.416" x2="1326.416" y1="118.5938" y2="575.5859"/></g><g class="participant participant-head" data-participant="Chef"><text fill="#000000" font-family="sans-serif" font-size="14" lengthAdjust="spacing" textLength="32.1904" x="5" y="115.292">Chef</text><ellipse cx="24.0952" cy="50.7969" fill="#E2E2F0" rx="8" ry="8" style="stroke:#181818;stroke-width:0.5;"/><path d="M24.0952,58.7969 L24.0952,85.7969 M11.0952,66.7969 L37.0952,66.7969 M24.0952,85.7969 L11.0952,100.7969 M24.0952,85.7969 L37.0952,100.7969" fill="none" style="stroke:#181818;stroke-width:0.5;"/></g><g class="participant participant-tail" data-participant="Chef"><text fill="#000000" font-family="sans-serif" font-size="14" lengthAdjust="spacing" textLength="32.1904" x="5" y="587.5811">Chef</text><ellipse cx="24.0952" cy="599.3828" fill="#E2E2F0" rx="8" ry="8" style="stroke:#181818;stroke-width:0.5;"/><path d="M24.0952,607.3828 L24.0952,634.3828 M11.0952,615.3828 L37.0952,615.3828 M24.0952,634.3828 L11.0952,649.3828 M24.0952,634.3828 L37.0952,649.3828" fill="none" style="stroke:#181818;stroke-width:0.5;"/></g><g class="participant participant-head" data-participant="App"><rect fill="#E2E2F0" height="30.2969" rx="2.5" ry="2.5" style="stroke:#181818;stroke-width:0.5;" width="141.7021" x="304.9229" y="87.2969"/><text fill="#000000" font-family="sans-serif" font-size="14" lengthAdjust="spacing" textLength="127.7021" x="311.9229" y="107.292">Front-end / Mobile</text></g><g class="participant participant-tail" data-participant="App"><rect fill="#E2E2F0" height="30.2969" rx="2.5" ry="2.5" style="stroke:#181818;stroke-width:0.5;" width="141.7021" x="304.9229" y="574.5859"/><text fill="#000000" font-family="sans-serif" font-size="14" lengthAdjust="spacing" textLength="127.7021" x="311.9229" y="594.5811">Front-end / Mobile</text></g><g class="participant participant-head" data-participant="API"><rect fill="#E2E2F0" height="30.2969" rx="2.5" ry="2.5" style="stroke:#181818;stroke-width:0.5;" width="90.1729" x="530.0161" y="87.2969"/><text fill="#000000" font-family="sans-serif" font-size="14" lengthAdjust="spacing" textLength="76.1729" x="537.0161" y="107.292">API Django</text></g><g class="participant participant-tail" data-participant="API"><rect fill="#E2E2F0" height="30.2969" rx="2.5" ry="2.5" style="stroke:#181818;stroke-width:0.5;" width="90.1729" x="530.0161" y="574.5859"/><text fill="#000000" font-family="sans-serif" font-size="14" lengthAdjust="spacing" textLength="76.1729" x="537.0161" y="594.5811">API Django</text></g><g class="participant participant-head" data-participant="DB"><rect fill="#E2E2F0" height="30.2969" rx="2.5" ry="2.5" style="stroke:#181818;stroke-width:0.5;" width="34.3848" x="812.9395" y="87.2969"/><text fill="#000000" font-family="sans-serif" font-size="14" lengthAdjust="spacing" textLength="20.3848" x="819.9395" y="107.292">DB</text></g><g class="participant participant-tail" data-participant="DB"><rect fill="#E2E2F0" height="30.2969" rx="2.5" ry="2.5" style="stroke:#181818;stroke-width:0.5;" width="34.3848" x="812.9395" y="574.5859"/><text fill="#000000" font-family="sans-serif" font-size="14" lengthAdjust="spacing" textLength="20.3848" x="819.9395" y="594.5811">DB</text></g><g class="participant participant-head" data-participant="Buyer"><rect fill="#E2E2F0" height="30.2969" rx="2.5" ry="2.5" style="stroke:#181818;stroke-width:0.5;" width="147.8887" x="857.3242" y="87.2969"/><text fill="#000000" font-family="sans-serif" font-size="14" lengthAdjust="spacing" textLength="133.8887" x="864.3242" y="107.292">Responsable Achat</text></g><g class="participant participant-tail" data-participant="Buyer"><rect fill="#E2E2F0" height="30.2969" rx="2.5" ry="2.5" style="stroke:#181818;stroke-width:0.5;" width="147.8887" x="857.3242" y="574.5859"/><text fill="#000000" font-family="sans-serif" font-size="14" lengthAdjust="spacing" textLength="133.8887" x="864.3242" y="594.5811">Responsable Achat</text></g><g class="participant participant-head" data-participant="Supplier"><rect fill="#E2E2F0" height="30.2969" rx="2.5" ry="2.5" style="stroke:#181818;stroke-width:0.5;" width="165.457" x="1015.2129" y="87.2969"/><text fill="#000000" font-family="sans-serif" font-size="14" lengthAdjust="spacing" textLength="151.457" x="1022.2129" y="107.292">Fournisseur (externe)</text></g><g class="participant participant-tail" data-participant="Supplier"><rect fill="#E2E2F0" height="30.2969" rx="2.5" ry="2.5" style="stroke:#181818;stroke-width:0.5;" width="165.457" x="1015.2129" y="574.5859"/><text fill="#000000" font-family="sans-serif" font-size="14" lengthAdjust="spacing" textLength="151.457" x="1022.2129" y="594.5811">Fournisseur (externe)</text></g><g class="participant participant-head" data-participant="StockModule"><rect fill="#E2E2F0" height="30.2969" rx="2.5" ry="2.5" style="stroke:#181818;stroke-width:0.5;" width="52.7461" x="1190.6699" y="87.2969"/><text fill="#000000" font-family="sans-serif" font-size="14" lengthAdjust="spacing" textLength="38.7461" x="1197.6699" y="107.292">Stock</text></g><g class="participant participant-tail" data-participant="StockModule"><rect fill="#E2E2F0" height="30.2969" rx="2.5" ry="2.5" style="stroke:#181818;stroke-width:0.5;" width="52.7461" x="1190.6699" y="574.5859"/><text fill="#000000" font-family="sans-serif" font-size="14" lengthAdjust="spacing" textLength="38.7461" x="1197.6699" y="594.5811">Stock</text></g><g class="participant participant-head" data-participant="Notif"><rect fill="#E2E2F0" height="30.2969" rx="2.5" ry="2.5" style="stroke:#181818;stroke-width:0.5;" width="146.0703" x="1253.416" y="87.2969"/><text fill="#000000" font-family="sans-serif" font-size="14" lengthAdjust="spacing" textLength="132.0703" x="1260.416" y="107.292">NotificationService</text></g><g class="participant participant-tail" data-participant="Notif"><rect fill="#E2E2F0" height="30.2969" rx="2.5" ry="2.5" style="stroke:#181818;stroke-width:0.5;" width="146.0703" x="1253.416" y="574.5859"/><text fill="#000000" font-family="sans-serif" font-size="14" lengthAdjust="spacing" textLength="132.0703" x="1260.416" y="594.5811">NotificationService</text></g><g class="message" data-participant-1="Chef" data-participant-2="App"><polygon fill="#181818" points="363.7739,145.7266,373.7739,149.7266,363.7739,153.7266,367.7739,149.7266" style="stroke:#181818;stroke-width:1;"/><line style="stroke:#181818;stroke-width:1;" x1="24.0952" x2="369.7739" y1="149.7266" y2="149.7266"/><text fill="#000000" font-family="sans-serif" font-size="13" lengthAdjust="spacing" textLength="327.6787" x="31.0952" y="144.6606">Cr&#233;er demande mat&#233;riel (type, quantite, chantier)</text></g><g class="message" data-participant-1="App" data-participant-2="API"><polygon fill="#181818" points="563.1025,174.8594,573.1025,178.8594,563.1025,182.8594,567.1025,178.8594" style="stroke:#181818;stroke-width:1;"/><line style="stroke:#181818;stroke-width:1;" x1="375.7739" x2="569.1025" y1="178.8594" y2="178.8594"/><text fill="#000000" font-family="sans-serif" font-size="13" lengthAdjust="spacing" textLength="175.3286" x="382.7739" y="173.7935">POST /api/material/request</text></g><g class="message" data-participant-1="API" data-participant-2="DB"><polygon fill="#181818" points="818.1318,203.9922,828.1318,207.9922,818.1318,211.9922,822.1318,207.9922" style="stroke:#181818;stroke-width:1;"/><line style="stroke:#181818;stroke-width:1;" x1="575.1025" x2="824.1318" y1="207.9922" y2="207.9922"/><text fill="#000000" font-family="sans-serif" font-size="13" lengthAdjust="spacing" textLength="231.0293" x="582.1025" y="202.9263">INSERT MaterialRequest (PENDING)</text></g><g class="message" data-participant-1="DB" data-participant-2="API"><polygon fill="#181818" points="586.1025,233.125,576.1025,237.125,586.1025,241.125,582.1025,237.125" style="stroke:#181818;stroke-width:1;"/><line style="stroke:#181818;stroke-width:1;stroke-dasharray:2,2;" x1="580.1025" x2="829.1318" y1="237.125" y2="237.125"/><text fill="#000000" font-family="sans-serif" font-size="13" lengthAdjust="spacing" textLength="87.6802" x="592.1025" y="232.0591">ok id_request</text></g><g class="message" data-participant-1="API" data-participant-2="Notif"><polygon fill="#181818" points="1314.4512,262.2578,1324.4512,266.2578,1314.4512,270.2578,1318.4512,266.2578" style="stroke:#181818;stroke-width:1;"/><line style="stroke:#181818;stroke-width:1;" x1="575.1025" x2="1320.4512" y1="266.2578" y2="266.2578"/><text fill="#000000" font-family="sans-serif" font-size="13" lengthAdjust="spacing" textLength="228.0649" x="582.1025" y="261.1919">notify(Buyer, "Nouvelle demande")</text></g><g class="message" data-participant-1="API" data-participant-2="App"><polygon fill="#181818" points="386.7739,291.3906,376.7739,295.3906,386.7739,299.3906,382.7739,295.3906" style="stroke:#181818;stroke-width:1;"/><line style="stroke:#181818;stroke-width:1;stroke-dasharray:2,2;" x1="380.7739" x2="574.1025" y1="295.3906" y2="295.3906"/><text fill="#000000" font-family="sans-serif" font-size="13" lengthAdjust="spacing" textLength="80.6787" x="392.7739" y="290.3247">201 Created</text></g><g class="message" data-participant-1="Buyer" data-participant-2="API"><polygon fill="#181818" points="586.1025,320.5234,576.1025,324.5234,586.1025,328.5234,582.1025,324.5234" style="stroke:#181818;stroke-width:1;"/><line style="stroke:#181818;stroke-width:1;" x1="580.1025" x2="930.2686" y1="324.5234" y2="324.5234"/><text fill="#000000" font-family="sans-serif" font-size="13" lengthAdjust="spacing" textLength="252.5605" x="592.1025" y="319.4575">Valide demande / cr&#233;e bon commande</text></g><g class="message" data-participant-1="API" data-participant-2="Supplier"><polygon fill="#181818" points="1085.9414,349.6563,1095.9414,353.6563,1085.9414,357.6563,1089.9414,353.6563" style="stroke:#181818;stroke-width:1;"/><line style="stroke:#181818;stroke-width:1;" x1="575.1025" x2="1091.9414" y1="353.6563" y2="353.6563"/><text fill="#000000" font-family="sans-serif" font-size="13" lengthAdjust="spacing" textLength="179.9307" x="582.1025" y="348.5903">sendOrder(purchase_order)</text></g><g class="message" data-participant-1="Supplier" data-participant-2="API"><polygon fill="#181818" points="586.1025,378.7891,576.1025,382.7891,586.1025,386.7891,582.1025,382.7891" style="stroke:#181818;stroke-width:1;"/><line style="stroke:#181818;stroke-width:1;stroke-dasharray:2,2;" x1="580.1025" x2="1096.9414" y1="382.7891" y2="382.7891"/><text fill="#000000" font-family="sans-serif" font-size="13" lengthAdjust="spacing" textLength="252.0845" x="592.1025" y="377.7231">confirmation livraison (livraison pr&#233;vu)</text></g><g class="message" data-participant-1="Supplier" data-participant-2="API"><polygon fill="#181818" points="586.1025,407.9219,576.1025,411.9219,586.1025,415.9219,582.1025,411.9219" style="stroke:#181818;stroke-width:1;"/><line style="stroke:#181818;stroke-width:1;" x1="580.1025" x2="1096.9414" y1="411.9219" y2="411.9219"/><text fill="#000000" font-family="sans-serif" font-size="13" lengthAdjust="spacing" textLength="306.3887" x="592.1025" y="406.856">POST /api/stock/entry {material, qty, chantier}</text></g><g class="message" data-participant-1="API" data-participant-2="StockModule"><polygon fill="#181818" points="1205.043,437.0547,1215.043,441.0547,1205.043,445.0547,1209.043,441.0547" style="stroke:#181818;stroke-width:1;"/><line style="stroke:#181818;stroke-width:1;" x1="575.1025" x2="1211.043" y1="441.0547" y2="441.0547"/><text fill="#000000" font-family="sans-serif" font-size="13" lengthAdjust="spacing" textLength="178.5405" x="582.1025" y="435.9888">processEntry(material, qty)</text></g><g class="message" data-participant-1="StockModule" data-participant-2="DB"><polygon fill="#181818" points="841.1318,466.1875,831.1318,470.1875,841.1318,474.1875,837.1318,470.1875" style="stroke:#181818;stroke-width:1;"/><line style="stroke:#181818;stroke-width:1;" x1="835.1318" x2="1216.043" y1="470.1875" y2="470.1875"/><text fill="#000000" font-family="sans-serif" font-size="13" lengthAdjust="spacing" textLength="197.8945" x="847.1318" y="465.1216">INSERT EntreeSortie (ENTREE)</text></g><g class="message" data-participant-1="DB" data-participant-2="StockModule"><polygon fill="#181818" points="1205.043,495.3203,1215.043,499.3203,1205.043,503.3203,1209.043,499.3203" style="stroke:#181818;stroke-width:1;"/><line style="stroke:#181818;stroke-width:1;stroke-dasharray:2,2;" x1="830.1318" x2="1211.043" y1="499.3203" y2="499.3203"/><text fill="#000000" font-family="sans-serif" font-size="13" lengthAdjust="spacing" textLength="15.4819" x="837.1318" y="494.2544">ok</text></g><g class="message" data-participant-1="API" data-participant-2="Notif"><polygon fill="#181818" points="1314.4512,524.4531,1324.4512,528.4531,1314.4512,532.4531,1318.4512,528.4531" style="stroke:#181818;stroke-width:1;"/><line style="stroke:#181818;stroke-width:1;" x1="575.1025" x2="1320.4512" y1="528.4531" y2="528.4531"/><text fill="#000000" font-family="sans-serif" font-size="13" lengthAdjust="spacing" textLength="201.7285" x="582.1025" y="523.3872">notify(Chef, "Mat&#233;riaux livr&#233;s")</text></g><g class="message" data-participant-1="API" data-participant-2="Buyer"><polygon fill="#181818" points="919.2686,553.5859,929.2686,557.5859,919.2686,561.5859,923.2686,557.5859" style="stroke:#181818;stroke-width:1;"/><line style="stroke:#181818;stroke-width:1;stroke-dasharray:2,2;" x1="575.1025" x2="925.2686" y1="557.5859" y2="557.5859"/><text fill="#000000" font-family="sans-serif" font-size="13" lengthAdjust="spacing" textLength="47.7026" x="582.1025" y="552.52">200 OK</text></g><!--SRC=[TLFBZjem5DtxAwvO1MaGqovdKGacwGXLF4HGjoFZN3eUWktn0msg-a5y1p_MQmS2eUegD_Ovzt7EjPU-HYZn8w0I20F8SSTLXO0UHiPOlPTEQgLmXyh3bFlJqKgi6UF2QmlFRxXXXbilXJIS4BtlLYi_G5N14APwBMli0NSnLnStMamWV-Vgbsxk5vFkVJvEv_cuUxn4PxHoV4rTZyGRzmar3WUqTtteO9Lq3eE533yzMeNz12w3CRMynvTUYsrp7wEfhaADNSXCUxcHWdiIf4IxbwAPBPqp5hM0mRSuAZp1ipqTqK9rbdDtKGuoVp3u01-1SafF4Kr14Te-YyoOWAHvWiMyNC6G6paaBbh9ww6DDZdF8e1m-PXWarbPB5VHcOHPDX385iKidynU-enGWpQfteAiNk_ofFxfKiNl8KjYFiHnmnvhqlayGw_V4DeHlpv-eJ6HAbUC9TQr-v-ybbLBfLqGKGzOQmL2xzBXfVp53s8vsfkvhT1c9bZInU6hZhzzreAkimYjDjBkaXrGoxtbqb6KNKD3DVVXblolk2wwFQJbjWVuVL6QxF67gpD_sbQlgq59w7K8TAw8tAn3fP8to3kh8XwnrBHP25anMosBehMfMq5l_-DHt3MowFmUUVXC0foExiQanf5eqoFCV_m5]--></g></svg>