<svg xmlns="http://www.w3.org/2000/svg" xmlns:xlink="http://www.w3.org/1999/xlink" contentStyleType="text/css" data-diagram-type="ACTIVITY" height="1636px" preserveAspectRatio="none" style="width:549px;height:1636px;background:#FFFFFF;" version="1.1" viewBox="0 0 549 1636" width="549px" zoomAndPan="magnify"><defs/><g><ellipse cx="274.1211" cy="20" fill="#222222" rx="10" ry="10" style="stroke:#222222;stroke-width:1;"/><rect fill="#F1F1F1" height="33.9688" rx="12.5" ry="12.5" style="stroke:#181818;stroke-width:0.5;" width="98.9668" x="224.6377" y="50"/><text fill="#000000" font-family="sans-serif" font-size="12" lengthAdjust="spacing" textLength="78.9668" x="234.6377" y="71.1387">Se connecter</text><rect fill="none" height="308.1719" style="stroke:#000000;stroke-width:1.5;" width="527.4023" x="11" y="93.9688"/><path d="M185.9443,93.9688 L185.9443,103.2656 L175.9443,113.2656 L11,113.2656" fill="none" style="stroke:#000000;stroke-width:1.5;"/><text fill="#000000" font-family="sans-serif" font-size="14" lengthAdjust="spacing" textLength="164.9443" x="14" y="107.9639">Cr&#233;ation &amp; Planification</text><rect fill="#F1F1F1" height="33.9688" rx="12.5" ry="12.5" style="stroke:#181818;stroke-width:0.5;" width="165.7109" x="191.2656" y="130.2656"/><text fill="#000000" font-family="sans-serif" font-size="12" lengthAdjust="spacing" textLength="145.7109" x="201.2656" y="151.4043">Cr&#233;er une fiche chantier</text><rect fill="#F1F1F1" height="33.9688" rx="12.5" ry="12.5" style="stroke:#181818;stroke-width:0.5;" width="176.3516" x="185.9453" y="184.2344"/><text fill="#000000" font-family="sans-serif" font-size="12" lengthAdjust="spacing" textLength="156.3516" x="195.9453" y="205.373">D&#233;finir &#233;tapes et planning</text><rect fill="#F1F1F1" height="33.9688" rx="12.5" ry="12.5" style="stroke:#181818;stroke-width:0.5;" width="185.5391" x="181.3516" y="238.2031"/><text fill="#000000" font-family="sans-serif" font-size="12" lengthAdjust="spacing" textLength="165.5391" x="191.3516" y="259.3418">Allouer budget pr&#233;visionnel</text><polygon fill="#F1F1F1" points="243.1218,292.1719,305.1204,292.1719,317.1204,304.1719,305.1204,316.1719,243.1218,316.1719,231.1218,304.1719,243.1218,292.1719" style="stroke:#181818;stroke-width:0.5;"/><text fill="#000000" font-family="sans-serif" font-size="11" lengthAdjust="spacing" textLength="61.9985" x="243.1218" y="307.98">Budget ok?</text><text fill="#000000" font-family="sans-serif" font-size="11" lengthAdjust="spacing" textLength="16.7578" x="214.364" y="301.5776">oui</text><text fill="#000000" font-family="sans-serif" font-size="11" lengthAdjust="spacing" textLength="20.6733" x="317.1204" y="301.5776">non</text><rect fill="#F1F1F1" height="33.9688" rx="12.5" ry="12.5" style="stroke:#181818;stroke-width:0.5;" width="240.541" x="23" y="326.1719"/><text fill="#000000" font-family="sans-serif" font-size="12" lengthAdjust="spacing" textLength="220.541" x="33" y="347.3105">Enregistrer chantier (statut: planifi&#233;)</text><rect fill="#F1F1F1" height="33.9688" rx="12.5" ry="12.5" style="stroke:#181818;stroke-width:0.5;" width="242.8613" x="283.541" y="326.1719"/><text fill="#000000" font-family="sans-serif" font-size="12" lengthAdjust="spacing" textLength="222.8613" x="293.541" y="347.3105">Alerter admin pour validation budget</text><polygon fill="#F1F1F1" points="274.1211,366.1406,286.1211,378.1406,274.1211,390.1406,262.1211,378.1406,274.1211,366.1406" style="stroke:#181818;stroke-width:0.5;"/><rect fill="none" height="136.2344" style="stroke:#000000;stroke-width:1.5;" width="223.7031" x="162.2695" y="412.1406"/><path d="M248.9004,412.1406 L248.9004,421.4375 L238.9004,431.4375 L162.2695,431.4375" fill="none" style="stroke:#000000;stroke-width:1.5;"/><text fill="#000000" font-family="sans-serif" font-size="14" lengthAdjust="spacing" textLength="76.6309" x="165.2695" y="426.1357">Affectation</text><rect fill="#F1F1F1" height="33.9688" rx="12.5" ry="12.5" style="stroke:#181818;stroke-width:0.5;" width="200.1348" x="174.0537" y="448.4375"/><text fill="#000000" font-family="sans-serif" font-size="12" lengthAdjust="spacing" textLength="180.1348" x="184.0537" y="469.5762">Affecter &#233;quipe(s) au chantier</text><rect fill="#F1F1F1" height="33.9688" rx="12.5" ry="12.5" style="stroke:#181818;stroke-width:0.5;" width="203.7031" x="172.2695" y="502.4063"/><text fill="#000000" font-family="sans-serif" font-size="12" lengthAdjust="spacing" textLength="183.7031" x="182.2695" y="523.5449">Planifier les pr&#233;sences et r&#244;les</text><rect fill="none" height="586.4805" style="stroke:#000000;stroke-width:1.5;" width="317.8027" x="132.085" y="558.375"/><path d="M211.2168,558.375 L211.2168,567.6719 L201.2168,577.6719 L132.085,577.6719" fill="none" style="stroke:#000000;stroke-width:1.5;"/><text fill="#000000" font-family="sans-serif" font-size="14" lengthAdjust="spacing" textLength="69.1318" x="135.085" y="572.3701">Ex&#233;cution</text><rect fill="#F1F1F1" height="33.9688" rx="12.5" ry="12.5" style="stroke:#181818;stroke-width:0.5;" width="264.0723" x="142.085" y="638.6719"/><text fill="#000000" font-family="sans-serif" font-size="12" lengthAdjust="spacing" textLength="244.0723" x="152.085" y="659.8105">Chef de chantier saisit rapport journalier</text><rect fill="#F1F1F1" height="33.9688" rx="12.5" ry="12.5" style="stroke:#181818;stroke-width:0.5;" width="174.2949" x="186.9736" y="692.6406"/><text fill="#000000" font-family="sans-serif" font-size="12" lengthAdjust="spacing" textLength="154.2949" x="196.9736" y="713.7793">Ajouter photos / incidents</text><rect fill="#F1F1F1" height="33.9688" rx="12.5" ry="12.5" style="stroke:#181818;stroke-width:0.5;" width="176.252" x="185.9951" y="746.6094"/><text fill="#000000" font-family="sans-serif" font-size="12" lengthAdjust="spacing" textLength="156.252" x="195.9951" y="767.748">Mettre &#224; jour avancement</text><rect fill="#F1F1F1" height="33.9688" rx="12.5" ry="12.5" style="stroke:#181818;stroke-width:0.5;" width="186.2188" x="181.0117" y="848.9805"/><text fill="#000000" font-family="sans-serif" font-size="12" lengthAdjust="spacing" textLength="166.2188" x="191.0117" y="870.1191">Cr&#233;er demande de mat&#233;riel</text><rect fill="#F1F1F1" height="33.9688" rx="12.5" ry="12.5" style="stroke:#181818;stroke-width:0.5;" width="234.3242" x="156.959" y="902.9492"/><text fill="#000000" font-family="sans-serif" font-size="12" lengthAdjust="spacing" textLength="214.3242" x="166.959" y="924.0879">Approvisionnement -&gt; Entr&#233;e stock</text><rect fill="#F1F1F1" height="33.9688" rx="12.5" ry="12.5" style="stroke:#181818;stroke-width:0.5;" width="239.5332" x="154.3545" y="956.918"/><text fill="#000000" font-family="sans-serif" font-size="12" lengthAdjust="spacing" textLength="219.5332" x="164.3545" y="978.0566">Consommer mat&#233;riel -&gt; Sortie stock</text><polygon fill="#F1F1F1" points="228.0828,800.5781,320.1594,800.5781,332.1594,812.5781,320.1594,824.5781,228.0828,824.5781,216.0828,812.5781,228.0828,800.5781" style="stroke:#181818;stroke-width:0.5;"/><text fill="#000000" font-family="sans-serif" font-size="11" lengthAdjust="spacing" textLength="16.7578" x="278.1211" y="834.7886">oui</text><text fill="#000000" font-family="sans-serif" font-size="11" lengthAdjust="spacing" textLength="92.0767" x="228.0828" y="816.3862">Besoin mat&#233;riel?</text><polygon fill="#F1F1F1" points="274.1211,1010.8867,286.1211,1022.8867,274.1211,1034.8867,262.1211,1022.8867,274.1211,1010.8867" style="stroke:#181818;stroke-width:0.5;"/><rect fill="#F1F1F1" height="33.9688" rx="12.5" ry="12.5" style="stroke:#181818;stroke-width:0.5;" width="229.5664" x="159.3379" y="1054.8867"/><text fill="#000000" font-family="sans-serif" font-size="12" lengthAdjust="spacing" textLength="209.5664" x="169.3379" y="1076.0254">Enregistrer d&#233;penses quotidiennes</text><polygon fill="#F1F1F1" points="274.1211,594.6719,286.1211,606.6719,274.1211,618.6719,262.1211,606.6719,274.1211,594.6719" style="stroke:#181818;stroke-width:0.5;"/><polygon fill="#F1F1F1" points="226.0579,1108.8555,322.1843,1108.8555,334.1843,1120.8555,322.1843,1132.8555,226.0579,1132.8555,214.0579,1120.8555,226.0579,1108.8555" style="stroke:#181818;stroke-width:0.5;"/><text fill="#000000" font-family="sans-serif" font-size="11" lengthAdjust="spacing" textLength="96.1265" x="226.0579" y="1124.6636">chantier en cours</text><rect fill="none" height="282.6055" style="stroke:#000000;stroke-width:1.5;" width="391.3652" x="84.4385" y="1154.8555"/><path d="M207.6074,1154.8555 L207.6074,1164.1523 L197.6074,1174.1523 L84.4385,1174.1523" fill="none" style="stroke:#000000;stroke-width:1.5;"/><text fill="#000000" font-family="sans-serif" font-size="14" lengthAdjust="spacing" textLength="113.1689" x="87.4385" y="1168.8506">Suivi &amp; Contr&#244;le</text><rect fill="#F1F1F1" height="33.9688" rx="12.5" ry="12.5" style="stroke:#181818;stroke-width:0.5;" width="220.7832" x="163.7295" y="1191.1523"/><text fill="#000000" font-family="sans-serif" font-size="12" lengthAdjust="spacing" textLength="200.7832" x="173.7295" y="1212.291">G&#233;n&#233;rer rapports hebdomadaires</text><rect fill="#F1F1F1" height="33.9688" rx="12.5" ry="12.5" style="stroke:#181818;stroke-width:0.5;" width="228.418" x="159.9121" y="1245.1211"/><text fill="#000000" font-family="sans-serif" font-size="12" lengthAdjust="spacing" textLength="208.418" x="169.9121" y="1266.2598">Direction consulte tableau de bord</text><rect fill="#F1F1F1" height="33.9688" rx="12.5" ry="12.5" style="stroke:#181818;stroke-width:0.5;" width="339.3652" x="104.4385" y="1347.4922"/><text fill="#000000" font-family="sans-serif" font-size="12" lengthAdjust="spacing" textLength="319.3652" x="114.4385" y="1368.6309">Action corrective (r&#233;affectation, commande, relance)</text><polygon fill="#F1F1F1" points="188.3662,1299.0898,359.876,1299.0898,371.876,1311.0898,359.876,1323.0898,188.3662,1323.0898,176.3662,1311.0898,188.3662,1299.0898" style="stroke:#181818;stroke-width:0.5;"/><text fill="#000000" font-family="sans-serif" font-size="11" lengthAdjust="spacing" textLength="16.7578" x="278.1211" y="1333.3003">oui</text><text fill="#000000" font-family="sans-serif" font-size="11" lengthAdjust="spacing" textLength="171.5098" x="188.3662" y="1314.8979">d&#233;passement budget ou retard</text><polygon fill="#F1F1F1" points="274.1211,1401.4609,286.1211,1413.4609,274.1211,1425.4609,262.1211,1413.4609,274.1211,1401.4609" style="stroke:#181818;stroke-width:0.5;"/><rect fill="none" height="178.2344" style="stroke:#000000;stroke-width:1.5;" width="238.4863" x="154.8779" y="1447.4609"/><path d="M215.8398,1447.4609 L215.8398,1456.7578 L205.8398,1466.7578 L154.8779,1466.7578" fill="none" style="stroke:#000000;stroke-width:1.5;"/><text fill="#000000" font-family="sans-serif" font-size="14" lengthAdjust="spacing" textLength="50.9619" x="157.8779" y="1461.4561">Cl&#244;ture</text><rect fill="#F1F1F1" height="33.9688" rx="12.5" ry="12.5" style="stroke:#181818;stroke-width:0.5;" width="121.9473" x="213.1475" y="1483.7578"/><text fill="#000000" font-family="sans-serif" font-size="12" lengthAdjust="spacing" textLength="101.9473" x="223.1475" y="1504.8965">Cl&#244;turer chantier</text><rect fill="#F1F1F1" height="33.9688" rx="12.5" ry="12.5" style="stroke:#181818;stroke-width:0.5;" width="218.4863" x="164.8779" y="1537.7266"/><text fill="#000000" font-family="sans-serif" font-size="12" lengthAdjust="spacing" textLength="198.4863" x="174.8779" y="1558.8652">Archivage rapports &amp; documents</text><ellipse cx="274.1211" cy="1602.6953" fill="none" rx="11" ry="11" style="stroke:#222222;stroke-width:1;"/><ellipse cx="274.1211" cy="1602.6953" fill="#222222" rx="6" ry="6" style="stroke:#222222;stroke-width:1;"/><line style="stroke:#181818;stroke-width:1;" x1="274.1211" x2="274.1211" y1="30" y2="50"/><polygon fill="#181818" points="270.1211,40,274.1211,50,278.1211,40,274.1211,44" style="stroke:#181818;stroke-width:1;"/><line style="stroke:#181818;stroke-width:1;" x1="274.1211" x2="274.1211" y1="164.2344" y2="184.2344"/><polygon fill="#181818" points="270.1211,174.2344,274.1211,184.2344,278.1211,174.2344,274.1211,178.2344" style="stroke:#181818;stroke-width:1;"/><line style="stroke:#181818;stroke-width:1;" x1="274.1211" x2="274.1211" y1="218.2031" y2="238.2031"/><polygon fill="#181818" points="270.1211,228.2031,274.1211,238.2031,278.1211,228.2031,274.1211,232.2031" style="stroke:#181818;stroke-width:1;"/><line style="stroke:#181818;stroke-width:1;" x1="231.1218" x2="143.2705" y1="304.1719" y2="304.1719"/><line style="stroke:#181818;stroke-width:1;" x1="143.2705" x2="143.2705" y1="304.1719" y2="326.1719"/><polygon fill="#181818" points="139.2705,316.1719,143.2705,326.1719,147.2705,316.1719,143.2705,320.1719" style="stroke:#181818;stroke-width:1;"/><line style="stroke:#181818;stroke-width:1;" x1="317.1204" x2="404.9717" y1="304.1719" y2="304.1719"/><line style="stroke:#181818;stroke-width:1;" x1="404.9717" x2="404.9717" y1="304.1719" y2="326.1719"/><polygon fill="#181818" points="400.9717,316.1719,404.9717,326.1719,408.9717,316.1719,404.9717,320.1719" style="stroke:#181818;stroke-width:1;"/><line style="stroke:#181818;stroke-width:1;" x1="143.2705" x2="143.2705" y1="360.1406" y2="378.1406"/><line style="stroke:#181818;stroke-width:1;" x1="143.2705" x2="262.1211" y1="378.1406" y2="378.1406"/><polygon fill="#181818" points="252.1211,374.1406,262.1211,378.1406,252.1211,382.1406,256.1211,378.1406" style="stroke:#181818;stroke-width:1;"/><line style="stroke:#181818;stroke-width:1;" x1="404.9717" x2="404.9717" y1="360.1406" y2="378.1406"/><line style="stroke:#181818;stroke-width:1;" x1="404.9717" x2="286.1211" y1="378.1406" y2="378.1406"/><polygon fill="#181818" points="296.1211,374.1406,286.1211,378.1406,296.1211,382.1406,292.1211,378.1406" style="stroke:#181818;stroke-width:1;"/><line style="stroke:#181818;stroke-width:1;" x1="274.1211" x2="274.1211" y1="272.1719" y2="292.1719"/><polygon fill="#181818" points="270.1211,282.1719,274.1211,292.1719,278.1211,282.1719,274.1211,286.1719" style="stroke:#181818;stroke-width:1;"/><line style="stroke:#181818;stroke-width:1;" x1="274.1211" x2="274.1211" y1="83.9688" y2="130.2656"/><polygon fill="#181818" points="270.1211,120.2656,274.1211,130.2656,278.1211,120.2656,274.1211,124.2656" style="stroke:#181818;stroke-width:1;"/><line style="stroke:#181818;stroke-width:1;" x1="274.1211" x2="274.1211" y1="482.4063" y2="502.4063"/><polygon fill="#181818" points="270.1211,492.4063,274.1211,502.4063,278.1211,492.4063,274.1211,496.4063" style="stroke:#181818;stroke-width:1;"/><line style="stroke:#181818;stroke-width:1;" x1="274.1211" x2="274.1211" y1="390.1406" y2="448.4375"/><polygon fill="#181818" points="270.1211,438.4375,274.1211,448.4375,278.1211,438.4375,274.1211,442.4375" style="stroke:#181818;stroke-width:1;"/><line style="stroke:#181818;stroke-width:1;" x1="274.1211" x2="274.1211" y1="672.6406" y2="692.6406"/><polygon fill="#181818" points="270.1211,682.6406,274.1211,692.6406,278.1211,682.6406,274.1211,686.6406" style="stroke:#181818;stroke-width:1;"/><line style="stroke:#181818;stroke-width:1;" x1="274.1211" x2="274.1211" y1="726.6094" y2="746.6094"/><polygon fill="#181818" points="270.1211,736.6094,274.1211,746.6094,278.1211,736.6094,274.1211,740.6094" style="stroke:#181818;stroke-width:1;"/><line style="stroke:#181818;stroke-width:1;" x1="274.1211" x2="274.1211" y1="882.9492" y2="902.9492"/><polygon fill="#181818" points="270.1211,892.9492,274.1211,902.9492,278.1211,892.9492,274.1211,896.9492" style="stroke:#181818;stroke-width:1;"/><line style="stroke:#181818;stroke-width:1;" x1="274.1211" x2="274.1211" y1="936.918" y2="956.918"/><polygon fill="#181818" points="270.1211,946.918,274.1211,956.918,278.1211,946.918,274.1211,950.918" style="stroke:#181818;stroke-width:1;"/><line style="stroke:#181818;stroke-width:1;" x1="274.1211" x2="274.1211" y1="824.5781" y2="848.9805"/><polygon fill="#181818" points="270.1211,838.9805,274.1211,848.9805,278.1211,838.9805,274.1211,842.9805" style="stroke:#181818;stroke-width:1;"/><line style="stroke:#181818;stroke-width:1;" x1="332.1594" x2="403.8877" y1="812.5781" y2="812.5781"/><polygon fill="#181818" points="399.8877,909.9336,403.8877,919.9336,407.8877,909.9336,403.8877,913.9336" style="stroke:#181818;stroke-width:1;"/><line style="stroke:#181818;stroke-width:1;" x1="403.8877" x2="403.8877" y1="812.5781" y2="1022.8867"/><line style="stroke:#181818;stroke-width:1;" x1="403.8877" x2="286.1211" y1="1022.8867" y2="1022.8867"/><polygon fill="#181818" points="296.1211,1018.8867,286.1211,1022.8867,296.1211,1026.8867,292.1211,1022.8867" style="stroke:#181818;stroke-width:1;"/><line style="stroke:#181818;stroke-width:1;" x1="274.1211" x2="274.1211" y1="990.8867" y2="1010.8867"/><polygon fill="#181818" points="270.1211,1000.8867,274.1211,1010.8867,278.1211,1000.8867,274.1211,1004.8867" style="stroke:#181818;stroke-width:1;"/><line style="stroke:#181818;stroke-width:1;" x1="274.1211" x2="274.1211" y1="780.5781" y2="800.5781"/><polygon fill="#181818" points="270.1211,790.5781,274.1211,800.5781,278.1211,790.5781,274.1211,794.5781" style="stroke:#181818;stroke-width:1;"/><line style="stroke:#181818;stroke-width:1;" x1="274.1211" x2="274.1211" y1="1034.8867" y2="1054.8867"/><polygon fill="#181818" points="270.1211,1044.8867,274.1211,1054.8867,278.1211,1044.8867,274.1211,1048.8867" style="stroke:#181818;stroke-width:1;"/><line style="stroke:#181818;stroke-width:1;" x1="274.1211" x2="274.1211" y1="618.6719" y2="638.6719"/><polygon fill="#181818" points="270.1211,628.6719,274.1211,638.6719,278.1211,628.6719,274.1211,632.6719" style="stroke:#181818;stroke-width:1;"/><line style="stroke:#181818;stroke-width:1;" x1="334.1843" x2="427.8877" y1="1120.8555" y2="1120.8555"/><polygon fill="#181818" points="423.8877,875.9648,427.8877,865.9648,431.8877,875.9648,427.8877,871.9648" style="stroke:#181818;stroke-width:1;"/><line style="stroke:#181818;stroke-width:1;" x1="427.8877" x2="427.8877" y1="606.6719" y2="1120.8555"/><line style="stroke:#181818;stroke-width:1;" x1="427.8877" x2="286.1211" y1="606.6719" y2="606.6719"/><polygon fill="#181818" points="296.1211,602.6719,286.1211,606.6719,296.1211,610.6719,292.1211,606.6719" style="stroke:#181818;stroke-width:1;"/><line style="stroke:#181818;stroke-width:1;" x1="274.1211" x2="274.1211" y1="1088.8555" y2="1108.8555"/><polygon fill="#181818" points="270.1211,1098.8555,274.1211,1108.8555,278.1211,1098.8555,274.1211,1102.8555" style="stroke:#181818;stroke-width:1;"/><line style="stroke:#181818;stroke-width:1;" x1="274.1211" x2="274.1211" y1="536.375" y2="594.6719"/><polygon fill="#181818" points="270.1211,584.6719,274.1211,594.6719,278.1211,584.6719,274.1211,588.6719" style="stroke:#181818;stroke-width:1;"/><line style="stroke:#181818;stroke-width:1;" x1="274.1211" x2="274.1211" y1="1225.1211" y2="1245.1211"/><polygon fill="#181818" points="270.1211,1235.1211,274.1211,1245.1211,278.1211,1235.1211,274.1211,1239.1211" style="stroke:#181818;stroke-width:1;"/><line style="stroke:#181818;stroke-width:1;" x1="274.1211" x2="274.1211" y1="1323.0898" y2="1347.4922"/><polygon fill="#181818" points="270.1211,1337.4922,274.1211,1347.4922,278.1211,1337.4922,274.1211,1341.4922" style="stroke:#181818;stroke-width:1;"/><line style="stroke:#181818;stroke-width:1;" x1="371.876" x2="453.8037" y1="1311.0898" y2="1311.0898"/><polygon fill="#181818" points="449.8037,1354.4766,453.8037,1364.4766,457.8037,1354.4766,453.8037,1358.4766" style="stroke:#181818;stroke-width:1;"/><line style="stroke:#181818;stroke-width:1;" x1="453.8037" x2="453.8037" y1="1311.0898" y2="1413.4609"/><line style="stroke:#181818;stroke-width:1;" x1="453.8037" x2="286.1211" y1="1413.4609" y2="1413.4609"/><polygon fill="#181818" points="296.1211,1409.4609,286.1211,1413.4609,296.1211,1417.4609,292.1211,1413.4609" style="stroke:#181818;stroke-width:1;"/><line style="stroke:#181818;stroke-width:1;" x1="274.1211" x2="274.1211" y1="1381.4609" y2="1401.4609"/><polygon fill="#181818" points="270.1211,1391.4609,274.1211,1401.4609,278.1211,1391.4609,274.1211,1395.4609" style="stroke:#181818;stroke-width:1;"/><line style="stroke:#181818;stroke-width:1;" x1="274.1211" x2="274.1211" y1="1279.0898" y2="1299.0898"/><polygon fill="#181818" points="270.1211,1289.0898,274.1211,1299.0898,278.1211,1289.0898,274.1211,1293.0898" style="stroke:#181818;stroke-width:1;"/><line style="stroke:#181818;stroke-width:1;" x1="274.1211" x2="274.1211" y1="1132.8555" y2="1191.1523"/><polygon fill="#181818" points="270.1211,1181.1523,274.1211,1191.1523,278.1211,1181.1523,274.1211,1185.1523" style="stroke:#181818;stroke-width:1;"/><line style="stroke:#181818;stroke-width:1;" x1="274.1211" x2="274.1211" y1="1517.7266" y2="1537.7266"/><polygon fill="#181818" points="270.1211,1527.7266,274.1211,1537.7266,278.1211,1527.7266,274.1211,1531.7266" style="stroke:#181818;stroke-width:1;"/><line style="stroke:#181818;stroke-width:1;" x1="274.1211" x2="274.1211" y1="1571.6953" y2="1591.6953"/><polygon fill="#181818" points="270.1211,1581.6953,274.1211,1591.6953,278.1211,1581.6953,274.1211,1585.6953" style="stroke:#181818;stroke-width:1;"/><line style="stroke:#181818;stroke-width:1;" x1="274.1211" x2="274.1211" y1="1425.4609" y2="1483.7578"/><polygon fill="#181818" points="270.1211,1473.7578,274.1211,1483.7578,278.1211,1473.7578,274.1211,1477.7578" style="stroke:#181818;stroke-width:1;"/><!--SRC=[TLF1Rjim3BtxAuWUYXZei7i2RF3IOAS10u9zW6BHCLTPKYNA6x3sNtRrlN_W7njbnqdJOa0EZaW-llT8FlrWCXGLOmfFHMGLk5Zl4MfdBTQCOLCKNXw9oLcusOPnKDFdBNmtob93zVJ_1luK0EiSnm398aYa5PnMMQOC8z7xSMZ8Ke1nOEKn0Z9uGR5aZrD2POnBKdz8-fXZWjPJfCp5v0HgOFLbZhc7poLmYnPMBb4fGQdVsO17YXm4O-aCAr75YTTJAo4y3cN6GXCHLjRPKsrbC8XUKBeZ2zwb0Bqof6UvCwEfpcfgYkShMwgc4RDU6p6_O9RwcCZZAfQWqhKT9mCboOWNMMn4My-sXF557ZTl-kn-ZqETBcq2UbGyyz-ss82-E0vHYNM2fBntWU6dAB8YQ6wUASfBPkXRnox2Ho1RaqRByPJm3LcSXF7lL0kgLyAkauGvFWq3enEtEiNZ40ZD-vbSba9ZfwmGbDyvVxFaLDu7jymwzu0Fds1dEPT2P5S_d5EtpaRNTO9uXid9Un59LxdpfDujXXu7ZpQApu_9CMb2QJbfdks4NoqPMOspaQAd5WDY-MOQ-qGzoI488PxcTPhzrt6mmaigJzv7QF6WNQUqeZ2tMj_BLptXoAd5P1Y1rS6WB8aOT711BmkV-QeOPrTEb-6Ia9LZrUzle5fGmzIW5oNvQ2yRUYUnRXh5dO2OFDJoVukzDUCBfx0eM_w6wqMkGjrIhuvu4NmBsjMfMxP9fkABvty0]--></g></svg>