<svg xmlns="http://www.w3.org/2000/svg" xmlns:xlink="http://www.w3.org/1999/xlink" contentStyleType="text/css" data-diagram-type="SEQUENCE" height="539px" preserveAspectRatio="none" style="width:1384px;height:539px;background:#FFFFFF;" version="1.1" viewBox="0 0 1384 539" width="1384px" zoomAndPan="magnify"><title>Sequence - Saisie Rapport Journalier</title><defs/><g><text fill="#000000" font-family="sans-serif" font-size="14" font-weight="bold" lengthAdjust="spacing" textLength="289.6797" x="546.1899" y="27.9951">Sequence - Saisie Rapport Journalier</text><g><title>Chef</title><rect fill="#000000" fill-opacity="0.00000" height="340.4609" width="8" x="20.0952" y="118.5938"/><line style="stroke:#181818;stroke-width:0.5;stroke-dasharray:5,5;" x1="24" x2="24" y1="118.5938" y2="459.0547"/></g><g><title>Mobile . Web</title><rect fill="#000000" fill-opacity="0.00000" height="340.4609" width="8" x="336.6714" y="118.5938"/><line style="stroke:#181818;stroke-width:0.5;stroke-dasharray:5,5;" x1="340.2295" x2="340.2295" y1="118.5938" y2="459.0547"/></g><g><title>API Django</title><rect fill="#000000" fill-opacity="0.00000" height="340.4609" width="8" x="796.1206" y="118.5938"/><line style="stroke:#181818;stroke-width:0.5;stroke-dasharray:5,5;" x1="800.0342" x2="800.0342" y1="118.5938" y2="459.0547"/></g><g><title>DB .PostgreSQL.</title><rect fill="#000000" fill-opacity="0.00000" height="340.4609" width="8" x="1073.957" y="118.5938"/><line style="stroke:#181818;stroke-width:0.5;stroke-dasharray:5,5;" x1="1077.7012" x2="1077.7012" y1="118.5938" y2="459.0547"/></g><g><title>Storage</title><rect fill="#000000" fill-opacity="0.00000" height="340.4609" width="8" x="1183.6011" y="118.5938"/><line style="stroke:#181818;stroke-width:0.5;stroke-dasharray:5,5;" x1="1187.2129" x2="1187.2129" y1="118.5938" y2="459.0547"/></g><g><title>NotificationService</title><rect fill="#000000" fill-opacity="0.00000" height="340.4609" width="8" x="1301.0244" y="118.5938"/><line style="stroke:#181818;stroke-width:0.5;stroke-dasharray:5,5;" x1="1304.9893" x2="1304.9893" y1="118.5938" y2="459.0547"/></g><g class="participant participant-head" data-participant="Chef"><text fill="#000000" font-family="sans-serif" font-size="14" lengthAdjust="spacing" textLength="32.1904" x="5" y="115.292">Chef</text><ellipse cx="24.0952" cy="50.7969" fill="#E2E2F0" rx="8" ry="8" style="stroke:#181818;stroke-width:0.5;"/><path d="M24.0952,58.7969 L24.0952,85.7969 M11.0952,66.7969 L37.0952,66.7969 M24.0952,85.7969 L11.0952,100.7969 M24.0952,85.7969 L37.0952,100.7969" fill="none" style="stroke:#181818;stroke-width:0.5;"/></g><g class="participant participant-tail" data-participant="Chef"><text fill="#000000" font-family="sans-serif" font-size="14" lengthAdjust="spacing" textLength="32.1904" x="5" y="471.0498">Chef</text><ellipse cx="24.0952" cy="482.8516" fill="#E2E2F0" rx="8" ry="8" style="stroke:#181818;stroke-width:0.5;"/><path d="M24.0952,490.8516 L24.0952,517.8516 M11.0952,498.8516 L37.0952,498.8516 M24.0952,517.8516 L11.0952,532.8516 M24.0952,517.8516 L37.0952,532.8516" fill="none" style="stroke:#181818;stroke-width:0.5;"/></g><g class="participant participant-head" data-participant="ClientApp"><rect fill="#E2E2F0" height="30.2969" rx="2.5" ry="2.5" style="stroke:#181818;stroke-width:0.5;" width="104.8838" x="288.2295" y="87.2969"/><text fill="#000000" font-family="sans-serif" font-size="14" lengthAdjust="spacing" textLength="90.8838" x="295.2295" y="107.292">Mobile / Web</text></g><g class="participant participant-tail" data-participant="ClientApp"><rect fill="#E2E2F0" height="30.2969" rx="2.5" ry="2.5" style="stroke:#181818;stroke-width:0.5;" width="104.8838" x="288.2295" y="458.0547"/><text fill="#000000" font-family="sans-serif" font-size="14" lengthAdjust="spacing" textLength="90.8838" x="295.2295" y="478.0498">Mobile / Web</text></g><g class="participant participant-head" data-participant="API"><rect fill="#E2E2F0" height="30.2969" rx="2.5" ry="2.5" style="stroke:#181818;stroke-width:0.5;" width="90.1729" x="755.0342" y="87.2969"/><text fill="#000000" font-family="sans-serif" font-size="14" lengthAdjust="spacing" textLength="76.1729" x="762.0342" y="107.292">API Django</text></g><g class="participant participant-tail" data-participant="API"><rect fill="#E2E2F0" height="30.2969" rx="2.5" ry="2.5" style="stroke:#181818;stroke-width:0.5;" width="90.1729" x="755.0342" y="458.0547"/><text fill="#000000" font-family="sans-serif" font-size="14" lengthAdjust="spacing" textLength="76.1729" x="762.0342" y="478.0498">API Django</text></g><g class="participant participant-head" data-participant="DB"><rect fill="#E2E2F0" height="30.2969" rx="2.5" ry="2.5" style="stroke:#181818;stroke-width:0.5;" width="130.5117" x="1012.7012" y="87.2969"/><text fill="#000000" font-family="sans-serif" font-size="14" lengthAdjust="spacing" textLength="116.5117" x="1019.7012" y="107.292">DB (PostgreSQL)</text></g><g class="participant participant-tail" data-participant="DB"><rect fill="#E2E2F0" height="30.2969" rx="2.5" ry="2.5" style="stroke:#181818;stroke-width:0.5;" width="130.5117" x="1012.7012" y="458.0547"/><text fill="#000000" font-family="sans-serif" font-size="14" lengthAdjust="spacing" textLength="116.5117" x="1019.7012" y="478.0498">DB (PostgreSQL)</text></g><g class="participant participant-head" data-participant="MediaStorage"><rect fill="#E2E2F0" height="30.2969" rx="2.5" ry="2.5" style="stroke:#181818;stroke-width:0.5;" width="68.7764" x="1153.2129" y="87.2969"/><text fill="#000000" font-family="sans-serif" font-size="14" lengthAdjust="spacing" textLength="54.7764" x="1160.2129" y="107.292">Storage</text></g><g class="participant participant-tail" data-participant="MediaStorage"><rect fill="#E2E2F0" height="30.2969" rx="2.5" ry="2.5" style="stroke:#181818;stroke-width:0.5;" width="68.7764" x="1153.2129" y="458.0547"/><text fill="#000000" font-family="sans-serif" font-size="14" lengthAdjust="spacing" textLength="54.7764" x="1160.2129" y="478.0498">Storage</text></g><g class="participant participant-head" data-participant="Notif"><rect fill="#E2E2F0" height="30.2969" rx="2.5" ry="2.5" style="stroke:#181818;stroke-width:0.5;" width="146.0703" x="1231.9893" y="87.2969"/><text fill="#000000" font-family="sans-serif" font-size="14" lengthAdjust="spacing" textLength="132.0703" x="1238.9893" y="107.292">NotificationService</text></g><g class="participant participant-tail" data-participant="Notif"><rect fill="#E2E2F0" height="30.2969" rx="2.5" ry="2.5" style="stroke:#181818;stroke-width:0.5;" width="146.0703" x="1231.9893" y="458.0547"/><text fill="#000000" font-family="sans-serif" font-size="14" lengthAdjust="spacing" textLength="132.0703" x="1238.9893" y="478.0498">NotificationService</text></g><g class="message" data-participant-1="Chef" data-participant-2="ClientApp"><polygon fill="#181818" points="328.6714,145.7266,338.6714,149.7266,328.6714,153.7266,332.6714,149.7266" style="stroke:#181818;stroke-width:1;"/><line style="stroke:#181818;stroke-width:1;" x1="24.0952" x2="334.6714" y1="149.7266" y2="149.7266"/><text fill="#000000" font-family="sans-serif" font-size="13" lengthAdjust="spacing" textLength="292.5762" x="31.0952" y="144.6606">Remplit rapport (texte, photos, avancement)</text></g><g class="message" data-participant-1="ClientApp" data-participant-2="MediaStorage"><polygon fill="#181818" points="1175.6011,174.8594,1185.6011,178.8594,1175.6011,182.8594,1179.6011,178.8594" style="stroke:#181818;stroke-width:1;"/><line style="stroke:#181818;stroke-width:1;" x1="340.6714" x2="1181.6011" y1="178.8594" y2="178.8594"/><text fill="#000000" font-family="sans-serif" font-size="13" lengthAdjust="spacing" textLength="150.3633" x="347.6714" y="173.7935">Upload photos -&gt; URLs</text></g><g class="message" data-participant-1="MediaStorage" data-participant-2="ClientApp"><polygon fill="#181818" points="351.6714,203.9922,341.6714,207.9922,351.6714,211.9922,347.6714,207.9922" style="stroke:#181818;stroke-width:1;"/><line style="stroke:#181818;stroke-width:1;stroke-dasharray:2,2;" x1="345.6714" x2="1186.6011" y1="207.9922" y2="207.9922"/><text fill="#000000" font-family="sans-serif" font-size="13" lengthAdjust="spacing" textLength="32.5635" x="357.6714" y="202.9263">URLs</text></g><g class="message" data-participant-1="ClientApp" data-participant-2="API"><polygon fill="#181818" points="788.1206,233.125,798.1206,237.125,788.1206,241.125,792.1206,237.125" style="stroke:#181818;stroke-width:1;"/><line style="stroke:#181818;stroke-width:1;" x1="340.6714" x2="794.1206" y1="237.125" y2="237.125"/><text fill="#000000" font-family="sans-serif" font-size="13" lengthAdjust="spacing" textLength="435.4492" x="347.6714" y="232.0591">POST /api/chantier/{id}/rapport {text, photos: URLs, avancement}</text></g><g class="message" data-participant-1="API" data-participant-2="DB"><polygon fill="#181818" points="1065.957,262.2578,1075.957,266.2578,1065.957,270.2578,1069.957,266.2578" style="stroke:#181818;stroke-width:1;"/><line style="stroke:#181818;stroke-width:1;" x1="800.1206" x2="1071.957" y1="266.2578" y2="266.2578"/><text fill="#000000" font-family="sans-serif" font-size="13" lengthAdjust="spacing" textLength="165.1724" x="807.1206" y="261.1919">INSERT RapportJournalier</text></g><g class="message" data-participant-1="DB" data-participant-2="API"><polygon fill="#181818" points="811.1206,291.3906,801.1206,295.3906,811.1206,299.3906,807.1206,295.3906" style="stroke:#181818;stroke-width:1;"/><line style="stroke:#181818;stroke-width:1;stroke-dasharray:2,2;" x1="805.1206" x2="1076.957" y1="295.3906" y2="295.3906"/><text fill="#000000" font-family="sans-serif" font-size="13" lengthAdjust="spacing" textLength="18.7573" x="817.1206" y="290.3247">OK</text></g><g class="message" data-participant-1="API" data-participant-2="DB"><polygon fill="#181818" points="1065.957,320.5234,1075.957,324.5234,1065.957,328.5234,1069.957,324.5234" style="stroke:#181818;stroke-width:1;"/><line style="stroke:#181818;stroke-width:1;" x1="800.1206" x2="1071.957" y1="324.5234" y2="324.5234"/><text fill="#000000" font-family="sans-serif" font-size="13" lengthAdjust="spacing" textLength="253.8364" x="807.1206" y="319.4575">UPDATE Chantier.avancement_percent</text></g><g class="message" data-participant-1="DB" data-participant-2="API"><polygon fill="#181818" points="811.1206,349.6563,801.1206,353.6563,811.1206,357.6563,807.1206,353.6563" style="stroke:#181818;stroke-width:1;"/><line style="stroke:#181818;stroke-width:1;stroke-dasharray:2,2;" x1="805.1206" x2="1076.957" y1="353.6563" y2="353.6563"/><text fill="#000000" font-family="sans-serif" font-size="13" lengthAdjust="spacing" textLength="18.7573" x="817.1206" y="348.5903">OK</text></g><g class="message" data-participant-1="API" data-participant-2="Notif"><polygon fill="#181818" points="1293.0244,378.7891,1303.0244,382.7891,1293.0244,386.7891,1297.0244,382.7891" style="stroke:#181818;stroke-width:1;"/><line style="stroke:#181818;stroke-width:1;" x1="800.1206" x2="1299.0244" y1="382.7891" y2="382.7891"/><text fill="#000000" font-family="sans-serif" font-size="13" lengthAdjust="spacing" textLength="287.3076" x="807.1206" y="377.7231">notifyRoles(ADMIN, CHEF) "Rapport soumis"</text></g><g class="message" data-participant-1="API" data-participant-2="ClientApp"><polygon fill="#181818" points="351.6714,407.9219,341.6714,411.9219,351.6714,415.9219,347.6714,411.9219" style="stroke:#181818;stroke-width:1;"/><line style="stroke:#181818;stroke-width:1;stroke-dasharray:2,2;" x1="345.6714" x2="799.1206" y1="411.9219" y2="411.9219"/><text fill="#000000" font-family="sans-serif" font-size="13" lengthAdjust="spacing" textLength="175.7285" x="357.6714" y="406.856">201 Created / confirmation</text></g><g class="message" data-participant-1="ClientApp" data-participant-2="Chef"><polygon fill="#181818" points="35.0952,437.0547,25.0952,441.0547,35.0952,445.0547,31.0952,441.0547" style="stroke:#181818;stroke-width:1;"/><line style="stroke:#181818;stroke-width:1;" x1="29.0952" x2="339.6714" y1="441.0547" y2="441.0547"/><text fill="#000000" font-family="sans-serif" font-size="13" lengthAdjust="spacing" textLength="92.3267" x="41.0952" y="435.9888">affiche succ&#232;s</text></g><!--SRC=[TLBBJW914BplLtGuGGAkUkHW0Yn6b9Ux48-c6Hfei-oCCmFH4F_7__37x5r0M19Favckhgwk6iy-9KZeVKEP8cX0WkoO84PZjFNmg3SsmvJ91W4ghorqLhG835hFYWrc7Ye3FMCX2U65PXL01nt1PxvbJ1dN6lSWUiDigGkKNClrg0tLiNP-QIbvxjSAKDGkOnAHW4igQWEQCnuUogYXzhnWXPvrbf3Tijft5Ez1aAy0ZRkJJcX2J6kJiWTxMBpgwSDJ7SnAU-tgW5iKWzQ2hmMdFY4vLo4yKvDgd1_QyleqxhkW16fSZ2uG9SxSgIQCHya4GZGSgfMi9Hc4Evv_XKU9krpYKU6UvbpdLv3J29luseJUCEd6asEkPx5AjV4tSlHKQfgEezQaAv7lnr-To5yDMINdV-s5q_AIvUTdh5DorLOqw0thq7detjUWSlnXJc_Mx2hxnWjdRgzle6C9FStbUocTBTYkYrJBVXM1DW4N4lgAm6sK-lbslm00]--></g></svg>